<svg xmlns="http://www.w3.org/2000/svg" viewBox="0 0 939.335 268.4811">
  <defs>
    <style>
      .a{fill:#4ca134}.b{fill:#6fb45e}.c{fill:#0069b4}.d{fill:#2e88c4}.e{fill:#009384}.f{fill:#46a89c}.g{fill:#a0c51f}.h{fill:#b3ce53}.i{fill:#f7d800}.j{fill:#ffe852}
    </style>
  </defs>
  <path class="a" d="M132.1024 114.8978c0-16.1326-17.1551-29.2123-17.1551-29.2123v58.427s17.1551-13.0794 17.1551-29.2147"/>
  <path class="b" d="M97.7918 114.8978c0 16.1353 17.155 29.2147 17.155 29.2147v-58.427s-17.155 13.08-17.155 29.2123"/>
  <path class="a" d="M29.26 97.7446c-16.1329 0-29.2124 17.1529-29.2124 17.1529h58.427S45.3946 97.7446 29.26 97.7446"/>
  <path class="b" d="M29.26 132.0532c16.135 0 29.2146-17.1549 29.2146-17.1549H.0472s13.08 17.1549 29.2124 17.1549"/>
  <path class="a" d="M200.6326 97.7446c-16.1329 0-29.2124 17.1529-29.2124 17.1529h58.427s-13.0795-17.1529-29.2146-17.1529"/>
  <path class="b" d="M200.6326 132.0532c16.1351 0 29.2146-17.1549 29.2146-17.1549H171.42s13.0795 17.1549 29.2124 17.1549"/>
  <path class="c" d="M229.8932 166.7575c-15.5449 20.1864-32.1967 39.2678-49.2381 57.9573-4.2382 4.6969-8.4919 9.3759-12.8592 13.9415-4.463 4.6566-8.38 9.064-13.2955 13.9259a57.1906 57.1906 0 01-79.1232.0155c-4.9129-4.8662-8.83-9.2712-13.2933-13.93-4.365-4.5656-8.6344-9.229-12.8612-13.9371C32.1789 206.0455 15.5315 186.9572 0 166.7575c20.2018 15.5319 39.2878 32.177 57.975 49.2228 9.3893 8.2824 18.6339 17.5291 27.5844 25.58a44.58 44.58 0 0058.7878.0157c8.9461-8.06 18.204-17.291 27.5888-25.58 18.69-17.0415 37.7711-33.6931 57.9572-49.2383"/>
  <path class="c" d="M97.7918 200.5855c0 16.1329 17.155 29.2125 17.155 29.2125v-58.427s-17.155 13.0794-17.155 29.2145"/>
  <path class="d" d="M132.1024 200.5855c0-16.1351-17.1551-29.2145-17.1551-29.2145v58.427s17.1551-13.08 17.1551-29.2125"/>
  <path class="e" d="M169.9191 145.6113c-11.407-11.4069-32.7869-8.5274-32.7869-8.5274L178.4465 178.4s2.8818-21.38-8.5274-32.7891"/>
  <path class="f" d="M145.6606 169.872c11.4069 11.4071 32.7868 8.5276 32.7868 8.5276l-41.3143-41.3165s-2.8818 21.38 8.5275 32.7889"/>
  <path class="e" d="M84.2337 169.872c11.4092-11.4091 8.5274-32.7867 8.5274-32.7867L51.4468 178.4s21.38 2.8817 32.7869-8.5276"/>
  <path class="f" d="M59.9752 145.6113C48.5659 157.0207 51.4477 178.4 51.4477 178.4l41.3143-41.3137s-21.38-2.8819-32.7868 8.525"/>
  <path class="g" d="M59.9752 84.1865c11.4069 11.4072 32.7868 8.5252 32.7868 8.5252L51.4477 51.3976s-2.8818 21.38 8.5275 32.7889"/>
  <path class="h" d="M84.2337 59.9258c-11.407-11.4091-32.7869-8.5274-32.7869-8.5274l41.3143 41.3144s2.8818-21.38-8.5274-32.787"/>
  <path class="g" d="M145.6606 59.9258c-11.4093 11.4072-8.5275 32.787-8.5275 32.787l41.3143-41.3144s-21.38-2.8817-32.7868 8.5274"/>
  <path class="h" d="M169.9191 84.1865c11.4092-11.4091 8.5274-32.7889 8.5274-32.7889l-41.3143 41.3141s21.38 2.882 32.7869-8.5252"/>
  <path class="i" d="M97.7921 29.2117c0 16.1337 17.1545 29.2118 17.1545 29.2118V0S97.7921 13.08 97.7921 29.2117"/>
  <path class="j" d="M132.1019 29.2117C132.1019 13.08 114.9473 0 114.9473 0v58.4235s17.1546-13.0781 17.1546-29.2118"/>
  <path class="c" d="M331.6984 109.4223a20.5226 20.5226 0 011.6926 8.4516v2.9661h-8.2223v-3.3719a11.0737 11.0737 0 00-3.7214-8.5094c-2.5077-2.3073-6.1957-3.4833-10.9661-3.4833a16.5729 16.5729 0 00-6.3739 1.1314 12.9542 12.9542 0 00-4.5209 3.02 13.249 13.249 0 00-2.7972 4.57 16.917 16.917 0 00-.9977 5.8572v28.3573a16.9434 16.9434 0 00.9977 5.8637 12.7855 12.7855 0 002.8328 4.5544 13.5147 13.5147 0 004.5833 3.0288 16.631 16.631 0 006.3828 1.138c4.8171 0 8.51-1.2492 10.9772-3.719a12.5125 12.5125 0 003.71-9.3025v-8.1555h-14.1282v-7.6925h22.2439V149.55a22.7 22.7 0 01-1.6792 8.8593 19.5984 19.5984 0 01-4.7281 6.797 20.2587 20.2587 0 01-7.2313 4.2671 28.0791 28.0791 0 01-9.1643 1.4365 26.3251 26.3251 0 01-9.3114-1.608 21.38 21.38 0 01-7.3693-4.5789 20.9294 20.9294 0 01-4.8216-7.2179 25.1333 25.1333 0 01-1.7193-9.51v-27.5176a25.7 25.7 0 011.6658-9.492 20.3674 20.3674 0 014.7637-7.2333 21.8142 21.8142 0 017.3672-4.5833 29.6377 29.6377 0 0118.518-.2251 20.74 20.74 0 017.2669 4.029 18.4537 18.4537 0 014.75 6.45m47.9688 17.9411a24.4 24.4 0 011.4453 8.5809v8.8906h-31.8845v6.6945a12.4278 12.4278 0 003.0978 8.5853c2.0378 2.2915 4.9441 3.4075 8.8927 3.4075 4.0465 0 7.0887-1.0222 9.0374-3.0266a10.1457 10.1457 0 002.9509-7.4117v-2.8662h7.906v2.4518a18.7858 18.7858 0 01-1.4765 7.6167 16.9343 16.9343 0 01-4.1 5.7547 17.7308 17.7308 0 01-6.3628 3.6412 25.1869 25.1869 0 01-7.955 1.2272 23.5887 23.5887 0 01-8.0977-1.343 18.233 18.233 0 01-6.4473-3.9574 17.8125 17.8125 0 01-4.2069-6.296 22.0971 22.0971 0 01-1.4521-8.2047v-15.164a24.2931 24.2931 0 011.4432-8.5809 18.38 18.38 0 014.1891-6.6054 18.8538 18.8538 0 016.4318-4.1847 23.3457 23.3457 0 0116.1751 0 17.8031 17.8031 0 016.3538 4.207 19.1677 19.1677 0 014.06 6.5831m-6.4607 9.8725v-1.6991a16.4911 16.4911 0 00-.8085-5.28 11.536 11.536 0 00-2.2849-4.0488 11.1656 11.1656 0 00-3.7549-2.6971 13.6735 13.6735 0 00-10.289.009 10.953 10.953 0 00-3.7437 2.6881 11.4719 11.4719 0 00-2.2916 4.04 16.7769 16.7769 0 00-.8062 5.2893v1.6991zm67.9343-22.1168a18.861 18.861 0 00-9.9773 2.6634 16.9551 16.9551 0 00-5.3449 5.1623 16.0223 16.0223 0 00-5.2915-5.171 20.0233 20.0233 0 00-10.4383-2.6547 18.813 18.813 0 00-8.9751 2.0955 17.4989 17.4989 0 00-4.3472 3.3229l-.7839-4.3785h-6.2068V169.86h8.22v-34.8465a13.8581 13.8581 0 01.84-4.8685 11.9281 11.9281 0 012.3451-3.8707 10.5293 10.5293 0 013.6724-2.5364 13.4228 13.4228 0 019.759-.0068 10.3791 10.3791 0 013.443 2.4252 9.9376 9.9376 0 012.0667 3.61 15.325 15.325 0 01.7082 4.7235v35.37h8.2157v-34.8463a13.7608 13.7608 0 01.8463-4.8685 11.8028 11.8028 0 012.3407-3.8707 10.377 10.377 0 013.6768-2.5364 13.44 13.44 0 019.7524-.0068 10.366 10.366 0 013.4452 2.4252 9.8478 9.8478 0 012.0645 3.61 15.2588 15.2588 0 01.7126 4.7235v35.37h8.2179v-34.9466c0-6.0533-1.71-10.91-5.0955-14.4515-3.4074-3.5521-8.0731-5.3426-13.8657-5.3426m66.1772 12.2443a24.4 24.4 0 011.4454 8.5809v8.8906h-31.8852v6.6945a12.4283 12.4283 0 003.0978 8.5853c2.0378 2.2915 4.9441 3.4075 8.8905 3.4075 4.051 0 7.0932-1.0222 9.04-3.0266a10.1457 10.1457 0 002.9509-7.4117v-2.8662h7.9061v2.4523a18.8225 18.8225 0 01-1.4743 7.6167 16.9775 16.9775 0 01-4.1046 5.7547 17.6721 17.6721 0 01-6.3582 3.6412 25.2053 25.2053 0 01-7.9595 1.2272 23.575 23.575 0 01-8.0954-1.343 18.2417 18.2417 0 01-6.45-3.9574 17.8983 17.8983 0 01-4.2047-6.296 22.1435 22.1435 0 01-1.4543-8.2047v-15.164a24.3445 24.3445 0 011.4454-8.5809 18.4108 18.4108 0 014.1891-6.6054 18.8327 18.8327 0 016.4318-4.1847 23.3522 23.3522 0 0116.1774 0 17.784 17.784 0 016.3493 4.207 19.1057 19.1057 0 014.0622 6.5831m-6.4607 9.8725v-1.6991a16.5523 16.5523 0 00-.8085-5.28 11.5077 11.5077 0 00-2.2871-4.0488 11.1461 11.1461 0 00-3.75-2.6971 13.6735 13.6735 0 00-10.289.009 10.92 10.92 0 00-3.746 2.6881 11.4 11.4 0 00-2.2894 4.04 16.7765 16.7765 0 00-.8084 5.2893v1.6991zm53.4607-9.8725a24.4 24.4 0 011.4453 8.5809v8.8906h-31.8849v6.6945a12.4192 12.4192 0 003.1 8.5853c2.0356 2.2915 4.9419 3.4075 8.89 3.4075 4.0466 0 7.0888-1.0222 9.0375-3.0266a10.1461 10.1461 0 002.9509-7.4117v-2.8662h7.906v2.4519a18.7858 18.7858 0 01-1.4766 7.6167 16.9089 16.9089 0 01-4.1022 5.7547 17.701 17.701 0 01-6.3605 3.6412 25.1974 25.1974 0 01-7.9551 1.2272 23.5881 23.5881 0 01-8.0976-1.343 18.2321 18.2321 0 01-6.4473-3.9574 17.8114 17.8114 0 01-4.207-6.296 22.0991 22.0991 0 01-1.452-8.2047v-15.164a24.2433 24.2433 0 011.4454-8.5809 18.3171 18.3171 0 014.1868-6.6054 18.8454 18.8454 0 016.43-4.1847 23.3523 23.3523 0 0116.1774 0 17.8229 17.8229 0 016.3537 4.207 19.1664 19.1664 0 014.06 6.5831m-6.4607 9.8725v-1.6991a16.5551 16.5551 0 00-.8085-5.28 11.5346 11.5346 0 00-2.285-4.0488 11.1851 11.1851 0 00-3.7548-2.6971 13.6735 13.6735 0 00-10.289.009 10.9231 10.9231 0 00-3.7415 2.6881 11.409 11.409 0 00-2.2939 4.04 16.843 16.843 0 00-.8062 5.2893v1.6991zm37.1918-22.1168a19.4769 19.4769 0 00-9.0618 2.0868 17.4836 17.4836 0 00-4.5121 3.3895l-.86-4.4364h-6.1891V169.86h8.2179v-34.3232a13.2421 13.2421 0 013.2137-9.1266c2.1023-2.4162 5.0109-3.5923 8.8815-3.5923a12.6871 12.6871 0 015.0043.9132 10.4658 10.4658 0 013.483 2.4252 10.6022 10.6022 0 012.1247 3.6435 14.2664 14.2664 0 01.7528 4.69v35.37h8.2177v-34.9466c0-6.062-1.7482-10.9192-5.2112-14.46-3.4676-3.5434-8.1956-5.3339-14.0618-5.3339m35.8514-12.5675h-8.2179v49.6015c0 5.4518 1.6547 9.8211 4.9262 12.9747a17.5622 17.5622 0 0012.6818 4.732h4.9418v-7.59H630.29c-3.0912 0-5.365-.8953-6.9463-2.7371a10.2956 10.2956 0 01-2.443-6.9729v-28.8132h14.3311v-7.385h-14.3313zm56.3558 24.8118a24.3977 24.3977 0 011.4476 8.5809v8.8906h-31.887v6.6945a12.4191 12.4191 0 003.1 8.5853c2.0355 2.2915 4.9418 3.4075 8.89 3.4075 4.0466 0 7.091-1.0222 9.04-3.0266a10.1529 10.1529 0 002.9486-7.4117v-2.8662h7.9083v2.4521a18.821 18.821 0 01-1.4766 7.6167 16.9685 16.9685 0 01-4.1022 5.7547 17.7394 17.7394 0 01-6.3605 3.6412 25.1914 25.1914 0 01-7.9573 1.2272 23.5881 23.5881 0 01-8.0976-1.343 18.2325 18.2325 0 01-6.4474-3.9574 17.7807 17.7807 0 01-4.2047-6.296 22.1009 22.1009 0 01-1.4543-8.2047v-15.164a24.2926 24.2926 0 011.4455-8.5809 18.402 18.402 0 014.1869-6.6054 18.8416 18.8416 0 016.4339-4.1847 23.3461 23.3461 0 0116.1752 0 17.8144 17.8144 0 016.3516 4.207 19.1327 19.1327 0 014.06 6.5831m-6.4607 9.8725v-1.6991a16.4911 16.4911 0 00-.8084-5.28 11.5005 11.5005 0 00-2.285-4.0488 11.1324 11.1324 0 00-3.7526-2.6971 13.6793 13.6793 0 00-10.2913.009 10.9217 10.9217 0 00-3.7414 2.6881 11.44 11.44 0 00-2.2917 4.04 16.7765 16.7765 0 00-.8083 5.2893v1.6991zm65.4067 2.6882l13.594 29.9362h-9.2446l-12.73-27.9408c-.2828.0245-.57.0424-.8574.06-.6392.04-1.2939.0579-1.9532.0579h-12.5021V169.86h-8.4272V98.6121h20.93a30.3916 30.3916 0 019.6744 1.47 23.0356 23.0356 0 017.7256 4.285 20.2008 20.2008 0 015.1134 6.7971 22.393 22.393 0 01-2.1914 21.7473 21.3008 21.3008 0 01-9.1309 7.0129m-23.6939-5.5944h12.298c4.9819 0 8.9349-1.3185 11.7477-3.9153 2.82-2.5943 4.1868-5.9817 4.1868-10.36 0-4.2068-1.3606-7.4563-4.1622-9.9125-2.8151-2.4767-6.7748-3.7373-11.7723-3.7373h-12.298zm77.27-18.1707h6.1823V169.86h-6.1868l-.862-4.394a18.1233 18.1233 0 01-4.51 3.3474 19.3536 19.3536 0 01-9.0641 2.0957c-5.8617 0-10.5942-1.7929-14.064-5.3407-3.4564-3.5254-5.2047-8.3939-5.2047-14.46v-16.1952c0-6.062 1.7483-10.9282 5.2047-14.46 3.4743-3.5434 8.2068-5.3339 14.064-5.3339a19.9582 19.9582 0 019.0485 2.0265 17.5845 17.5845 0 014.53 3.3229zm-14.1263 6.6589a12.6711 12.6711 0 00-5.0043.9132 10.211 10.211 0 00-3.4875 2.4342 10.4031 10.4031 0 00-2.1291 3.6345 14.3154 14.3154 0 00-.7439 4.69v17.0393a14.266 14.266 0 00.7439 4.69 9.9623 9.9623 0 005.6166 6.0777 12.5868 12.5868 0 005.0043.9042c3.8684 0 6.7768-1.1758 8.8814-3.5834a13.2423 13.2423 0 003.207-9.1287v-14.9524a13.2371 13.2371 0 00-3.207-9.1266c-2.1089-2.4162-5.0175-3.5923-8.8814-3.5923m63.2017-6.6589h6.18v53.701H838.85l-.8641-4.394a18.155 18.155 0 01-4.5077 3.3474 19.3689 19.3689 0 01-9.0663 2.0957c-5.8617 0-10.5942-1.7929-14.0617-5.3407-3.4564-3.5254-5.2069-8.3939-5.2069-14.46v-16.1952c0-6.062 1.75-10.9282 5.2069-14.46 3.472-3.5434 8.2045-5.3339 14.0617-5.3339a19.9513 19.9513 0 019.0485 2.0265 17.5081 17.5081 0 014.53 3.3229zm-14.1285 6.6589a12.6671 12.6671 0 00-5.0019.9132 10.17 10.17 0 00-3.4875 2.4342 10.4432 10.4432 0 00-2.1314 3.6345 14.4351 14.4351 0 00-.7438 4.69v17.0393a14.3848 14.3848 0 00.7438 4.69 10.3164 10.3164 0 002.1357 3.6345 10.143 10.143 0 003.4832 2.4432 12.5752 12.5752 0 005.0019.9042c3.8708 0 6.7792-1.1758 8.8817-3.5834a13.2447 13.2447 0 003.2091-9.1287v-14.9521a13.24 13.24 0 00-3.2091-9.1266c-2.1069-2.4162-5.0154-3.5923-8.8817-3.5923m37.711-20.2663h-8.2178v67.3109h8.2178zm19.097 0h-8.22v49.6015c0 5.4518 1.6547 9.8211 4.9263 12.9747a17.5676 17.5676 0 0012.6834 4.7322h4.94v-7.59h-4.94c-3.0933 0-5.3672-.8953-6.9484-2.7371a10.2936 10.2936 0 01-2.4409-6.9729v-28.8132h14.329v-7.385h-14.329zm25.9167 42.2833v6.6945a12.4283 12.4283 0 003.0978 8.5853c2.0356 2.2915 4.9442 3.4075 8.89 3.4075 4.0511 0 7.0932-1.0222 9.04-3.0266a10.1464 10.1464 0 002.9508-7.4117v-2.8662h7.9061v2.4523a18.8225 18.8225 0 01-1.4744 7.6167 16.9756 16.9756 0 01-4.1044 5.7547 17.6823 17.6823 0 01-6.3605 3.6412 25.182 25.182 0 01-7.9573 1.2272 23.5967 23.5967 0 01-8.0976-1.343 18.2511 18.2511 0 01-6.4474-3.9574 17.866 17.866 0 01-4.2047-6.296 22.1435 22.1435 0 01-1.4543-8.2047v-15.164a24.34 24.34 0 011.4455-8.5809 18.4332 18.4332 0 014.1869-6.6054 18.8627 18.8627 0 016.4339-4.1847 23.352 23.352 0 0116.1773 0 17.8046 17.8046 0 016.3494 4.207 19.0667 19.0667 0 014.06 6.5831 24.3478 24.3478 0 011.4476 8.5809v8.8906zm23.9788-7.599v-1.6991a16.5523 16.5523 0 00-.8085-5.28 11.5046 11.5046 0 00-2.2871-4.0488 11.1471 11.1471 0 00-3.75-2.6971 13.6791 13.6791 0 00-10.2912.009 10.9323 10.9323 0 00-3.7438 2.6881 11.4 11.4 0 00-2.2894 4.04 16.7138 16.7138 0 00-.8084 5.2893v1.6991z"/>
</svg>
